HIERARCHY
ROOT Hips
{
	OFFSET -10.056300 472.549988 7.733724
	CHANNELS 6 Xposition Yposition Zposition Zrotation Xrotation Yrotation
	JOINT Spine
	{
		OFFSET 0.000000 0.000000 0.000000
		CHANNELS 6 Xposition Yposition Zposition Zrotation Xrotation Yrotation
		JOINT Spine1
		{
			OFFSET 19.000000 0.000000 0.000000
			CHANNELS 3 Zrotation Xrotation Yrotation
			JOINT Neck
			{
				OFFSET 22.500000 0.000000 0.600001
				CHANNELS 6 Xposition Yposition Zposition Zrotation Xrotation Yrotation
				JOINT Head
				{
					OFFSET 14.000000 0.000000 0.030878
					CHANNELS 6 Xposition Yposition Zposition Zrotation Xrotation Yrotation
					End Site
					{
						OFFSET 17.000000 0.000000 0.000000
					}
				}
			}
			JOINT LeftShoulder
			{
				OFFSET 19.799999 -4.299988 3.700000
				CHANNELS 6 Xposition Yposition Zposition Zrotation Xrotation Yrotation
				JOINT LeftArm
				{
					OFFSET 8.000000 0.000000 0.000000
					CHANNELS 6 Xposition Yposition Zposition Zrotation Xrotation Yrotation
					JOINT LeftForeArm
					{
						OFFSET 15.200001 0.000000 0.000000
						CHANNELS 6 Xposition Yposition Zposition Zrotation Xrotation Yrotation
						JOINT LeftHand
						{
							OFFSET 17.799999 0.000000 0.000000
							CHANNELS 6 Xposition Yposition Zposition Zrotation Xrotation Yrotation
							End Site
							{
								OFFSET 7.199997 0.000000 0.000000
							}
						}
					}
				}
			}
			JOINT RightShoulder
			{
				OFFSET 19.799999 4.299988 3.699999
				CHANNELS 6 Xposition Yposition Zposition Zrotation Xrotation Yrotation
				JOINT RightArm
				{
					OFFSET 8.000000 -0.151642 0.000000
					CHANNELS 6 Xposition Yposition Zposition Zrotation Xrotation Yrotation
					JOINT RightForeArm
					{
						OFFSET 15.200001 0.000000 0.000000
						CHANNELS 6 Xposition Yposition Zposition Zrotation Xrotation Yrotation
						JOINT RightHand
						{
							OFFSET 17.799999 0.000000 0.000000
							CHANNELS 6 Xposition Yposition Zposition Zrotation Xrotation Yrotation
							End Site
							{
								OFFSET 7.199997 0.000000 0.000000
							}
						}
					}
				}
			}
		}
	}
	JOINT LeftUpLeg
	{
		OFFSET 5.984250 -4.788788 -7.665999
		CHANNELS 6 Xposition Yposition Zposition Zrotation Xrotation Yrotation
		JOINT LeftLeg
		{
			OFFSET 16.000000 0.000000 0.000000
			CHANNELS 6 Xposition Yposition Zposition Zrotation Xrotation Yrotation
			JOINT LeftFoot
			{
				OFFSET 18.000000 0.000000 0.000000
				CHANNELS 6 Xposition Yposition Zposition Zrotation Xrotation Yrotation
				End Site
				{
					OFFSET 0.000000 0.000000 -10.800000
				}
			}
		}
	}
	JOINT RightUpLeg
	{
		OFFSET 5.984250 4.788788 -7.665980
		CHANNELS 6 Xposition Yposition Zposition Zrotation Xrotation Yrotation
		JOINT RightLeg
		{
			OFFSET 16.000000 0.000000 0.000000
			CHANNELS 6 Xposition Yposition Zposition Zrotation Xrotation Yrotation
			JOINT RightFoot
			{
				OFFSET 18.000000 0.000000 0.000000
				CHANNELS 6 Xposition Yposition Zposition Zrotation Xrotation Yrotation
				End Site
				{
					OFFSET 0.000000 0.000000 -10.800000
				}
			}
		}
	}
	JOINT Tail
	{
		OFFSET 6.836960 0.000000 -0.722574
		CHANNELS 6 Xposition Yposition Zposition Zrotation Xrotation Yrotation
		JOINT Tail1
		{
			OFFSET 12.000000 0.000000 0.000000
			CHANNELS 6 Xposition Yposition Zposition Zrotation Xrotation Yrotation
			End Site
			{
				OFFSET 11.999999 0.000000 0.000000
			}
		}
	}
}
MOTION
Frames: 9
Frame Time: 0.041667
-68.537201 425.223999 44.955162 67.120085 -3.901025 8.382282 -0.000001 0.000075 -0.000025 -11.576122 2.098129 167.278450 -13.332211 0.032509 4.414629 22.499975 0.000054 0.599993 10.515143 -9.571200 10.579782 13.999979 0.000007 0.030960 -38.619532 100.302831 60.897584 19.799965 -4.299986 3.699974 15.804904 -144.365788 73.401284 8.000004 0.000010 0.000012 -56.781104 164.992877 -64.671079 15.199986 0.000038 -0.000017 -14.743600 7.344309 51.048042 17.800001 0.000045 0.000005 -13.640762 -0.895633 13.967459 19.799999 4.300023 3.699959 -14.477317 -59.259350 -63.018283 7.999992 -0.151627 0.000011 -47.740809 20.849509 -37.874120 15.200006 0.000084 0.000023 13.237987 -3.620942 62.043826 17.800051 0.000072 0.000015 1.106576 0.242268 4.202670 5.984231 -4.788765 -7.666034 8.108616 -9.325692 101.153503 15.999982 0.000021 -0.000029 11.375648 -0.303583 -86.136834 18.000059 0.000080 -0.000008 -5.605392 2.936131 -55.736027 5.984232 4.788797 -7.666008 -4.429688 1.955906 132.927366 16.000025 0.000095 -0.000022 -5.716801 4.667661 -76.631526 17.999996 -0.000006 0.000007 -0.775081 1.092635 -41.855433 6.836940 0.000097 -0.722594 -18.938178 19.678123 23.573544 12.000019 0.000117 -0.000023 3.790309 -17.159440 -12.325794 
-69.468475 423.428986 45.141258 65.245901 -3.852699 6.928227 0.000009 0.000094 0.000012 -9.721486 2.144201 167.095551 -13.465454 -0.184463 5.895836 22.499935 0.000033 0.599999 11.321895 -9.079846 12.211753 14.000033 -0.000035 0.030962 -41.746628 100.598619 63.263828 19.799944 -4.300026 3.700001 15.840341 -143.588936 73.136627 7.999982 -0.000025 -0.000006 -57.992725 165.106340 -65.932656 15.200046 0.000084 -0.000001 -13.801457 7.131316 49.588201 17.799980 0.000032 0.000004 -12.126757 -0.627829 11.418377 19.799976 4.300001 3.699996 -14.301254 -59.454912 -63.360018 7.999965 -0.151608 0.000011 -48.282382 16.959599 -40.950498 15.200001 0.000002 -0.000021 17.711891 -8.042847 64.339098 17.799986 0.000014 -0.000011 -0.209412 1.056762 11.420795 5.984252 -4.788715 -7.665999 7.903792 -7.354333 106.340410 15.999985 0.000031 -0.000004 13.778225 -0.504863 -89.566907 18.000032 0.000060 -0.000014 -6.163754 2.237541 -48.816718 5.984236 4.788858 -7.665971 -4.838769 2.088188 132.326132 15.999992 0.000057 -0.000034 -7.522411 4.701174 -77.656744 18.000021 0.000033 -0.000002 -0.187024 1.106328 -41.784741 6.836990 0.000073 -0.722562 -19.864635 19.089443 26.506298 11.999999 0.000014 -0.000014 3.680040 -17.316123 -10.657913 
-70.366676 421.523010 45.275059 63.087630 -3.218339 5.371313 -0.000001 0.000032 0.000003 -7.242856 1.927652 167.363691 -12.852041 -0.199994 6.759669 22.500010 0.000047 0.599989 11.997640 -8.798309 13.945558 13.999947 0.000045 0.030947 -41.815811 100.507026 62.969638 19.800053 -4.299959 3.699989 16.165827 -142.514452 72.215781 7.999962 -0.000031 -0.000012 -58.465688 163.689664 -67.456014 15.200047 0.000056 0.000005 -12.133811 5.840528 48.527217 17.800013 -0.000019 0.000008 -9.284182 -0.391256 8.632920 19.800037 4.299993 3.699996 -14.536560 -58.409456 -64.076709 7.999959 -0.151613 0.000009 -50.473049 16.311026 -46.029758 15.200027 0.000042 -0.000014 15.588372 -3.739045 68.080983 17.799995 0.000037 -0.000038 3.977396 0.325943 7.506570 5.984230 -4.788755 -7.666012 7.103328 -6.149873 111.904761 15.999982 -0.000003 0.000027 15.131903 -0.981867 -93.133058 18.000004 0.000065 0.000004 -6.508062 1.546559 -42.205501 5.984265 4.788811 -7.665981 -4.659448 1.684408 131.879137 15.999977 -0.000023 -0.000010 -9.232787 4.553164 -78.573601 18.000010 0.000039 0.000010 0.389605 1.155838 -42.742586 6.836973 0.000024 -0.722573 -20.250853 17.597089 28.562089 11.999969 0.000061 -0.000022 3.101876 -16.758764 -9.227002 
-71.237183 419.605011 45.422260 60.667666 -2.083767 4.097706 0.000010 0.000022 -0.000026 -4.108831 1.495166 167.172186 -11.413955 -0.107678 8.105469 22.500011 0.000056 0.599995 12.010871 -8.543609 15.157861 13.999970 0.000015 0.030961 -43.953975 100.957928 64.848493 19.800058 -4.300014 3.700011 16.499451 -141.067899 71.120356 7.999994 -0.000055 0.000002 -56.742206 157.812381 -69.523922 15.200042 0.000060 -0.000004 -9.296670 0.843028 48.805110 17.800001 0.000042 0.000005 -3.427797 0.034164 3.406583 19.800022 4.300007 3.699999 -15.056957 -56.354054 -64.938713 8.000033 -0.151658 -0.000016 -51.278359 15.590142 -49.470299 15.199980 0.000026 -0.000023 17.856893 -3.384226 70.486767 17.799980 0.000041 -0.000042 5.245796 0.447838 9.265307 5.984216 -4.788766 -7.666034 6.389859 -5.400463 117.688900 15.999972 0.000038 0.000035 14.011165 -1.228016 -96.191186 17.999996 0.000075 0.000002 -6.248944 1.060106 -37.925220 5.984229 4.788814 -7.666011 -4.080824 0.852723 130.751117 15.999998 0.000040 0.000033 -10.834265 4.184407 -78.976883 18.000013 0.000052 -0.000029 0.984133 1.186396 -43.588584 6.836989 0.000034 -0.722601 -19.404581 15.609426 29.294555 11.999981 0.000113 -0.000029 2.640087 -16.005865 -8.489461 
-72.146111 417.721039 45.585258 58.239978 -0.724125 2.956042 -0.000030 -0.000001 -0.000013 -0.772770 0.821641 167.077670 -9.792598 0.239263 9.376210 22.499931 0.000049 0.599988 12.020282 -8.538011 15.973548 13.999997 0.000008 0.030952 -41.264041 100.387832 61.957766 19.799976 -4.299997 3.699970 16.732756 -139.493104 70.114788 7.999997 0.000010 -0.000004 -52.060159 152.715189 -71.501774 15.200041 0.000032 0.000014 9.934105 -9.915885 54.419385 17.800001 0.000030 0.000007 -5.792812 3.412178 -12.286017 19.799973 4.299993 3.700006 -15.344739 -54.478893 -65.999640 8.000038 -0.151637 0.000038 -52.041274 16.131735 -52.867990 15.200030 0.000034 -0.000010 19.351669 -2.780368 72.680207 17.799999 0.000075 -0.000062 5.805779 0.541449 10.367572 5.984229 -4.788758 -7.666030 6.507343 -5.425674 124.161474 15.999977 0.000048 0.000015 12.781652 -1.544295 -98.502994 18.000013 0.000072 -0.000005 -5.838511 0.729649 -35.029144 5.984236 4.788777 -7.665995 -3.329739 -0.238697 129.103320 16.000008 0.000048 0.000007 -11.863590 3.661846 -78.809065 17.999968 0.000053 -0.000010 1.466459 1.201280 -44.041879 6.836966 0.000008 -0.722567 -17.991772 13.336010 29.136597 11.999980 0.000074 -0.000038 2.155906 -14.959357 -8.439731 
-72.989685 415.952972 45.859158 55.603576 0.608768 2.513087 -0.000000 0.000102 0.000017 2.793173 0.148591 166.499740 -8.377061 0.622993 10.558462 22.500010 0.000043 0.599994 12.118799 -8.573354 16.474034 14.000006 0.000024 0.030964 -39.747367 99.852919 59.933701 19.800051 -4.300030 3.699984 16.973213 -137.790583 68.961551 7.999964 -0.000013 0.000000 -52.062396 153.529607 -71.019303 15.199968 0.000085 -0.000011 36.626896 -17.003239 64.832333 17.799997 0.000039 -0.000002 -18.771592 11.392808 -23.913612 19.800026 4.300026 3.700017 -15.396194 -52.803694 -67.298626 8.000046 -0.151639 -0.000020 -52.078782 16.427703 -55.987026 15.199988 0.000068 0.000000 19.845398 -2.470285 74.369852 17.799971 0.000026 -0.000028 6.677716 0.616491 11.521196 5.984278 -4.788692 -7.665992 7.165442 -6.001443 128.844880 15.999981 0.000060 0.000014 12.210865 -1.667857 -98.275098 17.999994 0.000063 -0.000003 -5.438256 0.422874 -32.407096 5.984279 4.788853 -7.665962 -3.541900 -0.511367 126.500486 16.000025 0.000059 -0.000009 -13.960879 3.272074 -77.938851 17.999973 0.000023 -0.000024 2.233704 1.175820 -44.942030 6.836975 0.000031 -0.722542 -16.139884 11.082834 27.701094 11.999967 0.000031 -0.000022 1.869775 -13.674168 -8.792228 
-73.809715 414.237946 46.015450 53.136608 1.747386 2.308351 0.000014 0.000053 0.000010 6.217639 -0.338521 165.933244 -6.995462 0.800932 11.881144 22.499987 0.000040 0.599996 12.271176 -8.720094 16.309208 13.999992 -0.000042 0.030949 -37.285309 99.039813 56.780394 19.800053 -4.300021 3.700003 17.114564 -136.037165 67.890427 8.000034 -0.000006 0.000001 -54.018228 155.002892 -69.398902 15.199965 0.000015 -0.000026 55.038286 -18.098593 73.414022 17.800005 0.000061 0.000026 -31.217595 18.293308 -26.919145 19.800039 4.300038 3.699967 -15.440655 -50.878875 -68.567900 7.999999 -0.151632 -0.000004 -51.722769 14.978941 -59.025860 15.200045 0.000074 0.000038 19.892315 -2.901023 75.552629 17.799959 0.000012 -0.000003 7.615733 0.755050 12.575421 5.984260 -4.788728 -7.665992 8.621017 -6.711558 133.568762 15.999980 0.000002 0.000037 11.576679 -2.079247 -97.257154 17.999960 0.000069 -0.000011 -5.110300 0.399081 -32.315141 5.984253 4.788780 -7.665972 -2.203935 -1.360962 124.257192 16.000006 0.000068 0.000057 -15.224304 2.114207 -77.499144 17.999992 0.000029 -0.000005 2.748587 1.164215 -46.235395 6.836968 0.000034 -0.722553 -14.167506 8.996611 25.696044 12.000003 0.000031 -0.000033 1.182833 -12.076784 -9.489449 
-74.560715 412.667999 46.121159 51.232942 2.767573 2.478803 0.000022 -0.000018 -0.000019 8.710869 -0.658890 165.750960 -6.258638 0.954797 12.356371 22.499990 0.000036 0.599988 12.604447 -9.093477 15.908523 13.999990 0.000054 0.030945 -32.447483 98.217717 51.677491 19.800047 -4.300015 3.699998 17.204524 -134.146158 66.734643 7.999990 -0.000047 -0.000004 -55.325174 156.878025 -67.859159 15.200011 0.000037 -0.000005 70.137580 -14.256872 79.835834 17.800005 -0.000000 0.000027 -39.785613 24.285936 -30.550623 19.800045 4.300042 3.699978 -15.403583 -49.323979 -69.614627 8.000077 -0.151632 -0.000003 -52.131825 14.033383 -61.170799 15.200006 0.000028 0.000032 19.744415 -2.854123 75.650103 17.800009 0.000042 -0.000062 8.341185 0.785982 12.912520 5.984264 -4.788773 -7.666029 10.223957 -7.462190 137.806908 15.999993 0.000086 -0.000007 11.399720 -2.620006 -95.108690 17.999960 0.000074 0.000009 -4.967109 0.538776 -33.876601 5.984282 4.788776 -7.665998 -1.133994 -1.927432 121.708930 16.000029 0.000027 0.000003 -15.583724 1.334534 -77.483244 17.999981 0.000033 0.000012 2.998989 1.174567 -46.849876 6.837019 0.000003 -0.722582 -12.805785 6.942482 22.869073 11.999967 0.000006 -0.000008 0.609782 -10.366331 -10.282351 
-75.290565 411.253967 46.225758 49.932194 3.027671 3.246763 0.000003 0.000066 0.000018 10.516874 -0.675074 165.095740 -5.822517 0.802468 12.587197 22.499958 0.000045 0.599989 13.066831 -9.593508 15.391140 13.999986 0.000042 0.030945 -26.659458 97.533558 45.890217 19.800034 -4.299963 3.699981 17.434167 -132.367413 65.162552 7.999994 -0.000049 -0.000013 -52.025534 155.663454 -67.420592 15.199970 -0.000012 -0.000034 84.921962 -8.258146 81.036677 17.800043 0.000054 0.000032 -49.699130 27.160066 -25.749554 19.800007 4.300024 3.699978 -15.323229 -47.970416 -70.535821 8.000034 -0.151643 0.000031 -52.443511 13.221257 -62.816485 15.199980 0.000015 0.000013 19.650459 -2.966022 75.107287 17.800016 0.000041 -0.000009 9.066280 0.831320 13.438132 5.984237 -4.788707 -7.665987 11.819086 -7.855210 140.467936 15.999975 0.000038 0.000018 12.699953 -3.365758 -91.222852 18.000008 0.000130 0.000026 -5.210882 0.664738 -35.150858 5.984268 4.788817 -7.665962 -0.154801 -1.841521 118.688225 16.000013 0.000028 0.000038 -15.694060 0.689449 -77.667871 17.999983 0.000053 0.000028 3.121160 1.178182 -46.816702 6.836986 0.000104 -0.722546 -12.149502 5.723673 19.459889 11.999991 0.000050 -0.000007 0.209125 -8.775167 -11.360587 
